<svg xmlns="http://www.w3.org/2000/svg" xmlns:xlink="http://www.w3.org/1999/xlink" width="500" zoomAndPan="magnify" viewBox="0 0 375 374.999991" height="500" preserveAspectRatio="xMidYMid meet" version="1.2"><g id="ba993d170f"><path style=" stroke:none;fill-rule:nonzero;fill:#855268;fill-opacity:1;" d="M 138.421875 226.457031 C 138.378906 226.457031 138.339844 226.449219 138.296875 226.429688 C 138.152344 226.363281 138.082031 226.195312 138.136719 226.046875 C 141.070312 218.085938 146.167969 212.140625 153.292969 208.378906 C 159.242188 205.234375 165.355469 204.226562 169.402344 203.5625 C 171.25 203.257812 172.710938 203.015625 173.449219 202.683594 C 174.484375 202.214844 175.707031 201.066406 175.929688 199.863281 C 175.960938 199.699219 176.117188 199.589844 176.285156 199.621094 C 176.449219 199.652344 176.558594 199.808594 176.527344 199.976562 C 176.265625 201.394531 174.90625 202.691406 173.699219 203.238281 C 172.886719 203.605469 171.46875 203.835938 169.5 204.160156 C 162.140625 205.371094 147.304688 207.816406 140.003906 223.167969 C 142.722656 219.726562 146.78125 217.003906 151.738281 215.347656 C 157.328125 213.480469 163.359375 213.121094 169.0625 212.914062 C 169.613281 212.894531 170.164062 212.878906 170.71875 212.859375 C 175.902344 212.683594 181.265625 212.5 186.367188 211.308594 C 188.628906 210.78125 190.925781 210.039062 193.144531 209.324219 C 198.636719 207.554688 204.316406 205.726562 209.996094 206.90625 C 210.359375 206.980469 210.726562 207.070312 211.078125 207.15625 C 212.011719 207.382812 212.890625 207.59375 213.800781 207.609375 C 214.894531 207.628906 216.289062 207.265625 216.945312 206.183594 C 217.9375 204.550781 216.773438 202.503906 215.5 200.542969 C 210.632812 193.0625 208.757812 183.734375 210.351562 174.957031 C 210.378906 174.792969 210.539062 174.679688 210.703125 174.710938 C 210.867188 174.742188 210.976562 174.898438 210.949219 175.0625 C 209.382812 183.695312 211.226562 192.859375 216.011719 200.210938 C 217.09375 201.882812 218.734375 204.402344 217.464844 206.5 C 216.679688 207.796875 215.046875 208.234375 213.789062 208.21875 C 212.8125 208.199219 211.859375 207.96875 210.9375 207.746094 C 210.589844 207.660156 210.226562 207.574219 209.875 207.5 C 204.351562 206.351562 198.75 208.15625 193.332031 209.902344 C 191.097656 210.621094 188.789062 211.363281 186.507812 211.898438 C 181.34375 213.105469 175.953125 213.285156 170.738281 213.464844 C 170.1875 213.484375 169.636719 213.5 169.082031 213.523438 C 163.425781 213.726562 157.445312 214.078125 151.929688 215.921875 C 145.828125 217.960938 141.125 221.644531 138.691406 226.292969 C 138.636719 226.394531 138.53125 226.453125 138.421875 226.453125 Z M 138.421875 226.457031 "/><path style=" stroke:none;fill-rule:nonzero;fill:#855268;fill-opacity:1;" d="M 138.308594 174.804688 C 137.683594 174.804688 137.046875 174.746094 136.425781 174.59375 C 134.84375 174.210938 133.097656 173.003906 132.757812 171.167969 C 132.578125 170.207031 132.808594 169.261719 133.027344 168.347656 C 133.136719 167.902344 133.25 167.4375 133.308594 166.988281 C 133.417969 166.140625 133.191406 165.199219 132.742188 164.648438 C 132.476562 164.320312 132.148438 164.136719 131.773438 164.105469 C 131.675781 164.101562 131.589844 164.046875 131.539062 163.964844 C 130.710938 162.664062 130.894531 160.828125 131.949219 159.789062 C 132.152344 159.589844 132.382812 159.421875 132.628906 159.289062 C 132.351562 159.082031 132.097656 158.839844 131.878906 158.566406 C 130.929688 157.371094 130.734375 155.644531 131.390625 154.269531 C 131.605469 153.816406 131.90625 153.386719 132.195312 152.972656 C 132.789062 152.121094 133.347656 151.320312 133.113281 150.464844 C 132.914062 149.734375 132.210938 149.300781 131.464844 148.84375 C 130.730469 148.390625 129.96875 147.921875 129.605469 147.117188 C 129.148438 146.109375 129.523438 144.976562 130.027344 144.246094 C 130.515625 143.546875 131.179688 143.015625 131.824219 142.503906 L 132.054688 142.320312 C 135.511719 139.546875 137.757812 136.496094 138.730469 133.253906 C 139.417969 130.953125 139.480469 128.476562 139.542969 126.082031 C 139.566406 125.160156 139.589844 124.207031 139.648438 123.269531 C 140.167969 115.035156 143.53125 107.148438 149.109375 101.0625 C 149.222656 100.941406 149.414062 100.933594 149.535156 101.046875 C 149.660156 101.160156 149.667969 101.351562 149.554688 101.472656 C 144.070312 107.453125 140.765625 115.210938 140.253906 123.308594 C 140.195312 124.234375 140.171875 125.179688 140.148438 126.097656 C 140.085938 128.53125 140.023438 131.046875 139.308594 133.425781 C 138.300781 136.789062 135.988281 139.941406 132.433594 142.792969 L 132.203125 142.976562 C 131.59375 143.464844 130.960938 143.964844 130.527344 144.59375 C 130.117188 145.183594 129.804688 146.089844 130.15625 146.863281 C 130.445312 147.5 131.097656 147.902344 131.785156 148.324219 C 132.597656 148.824219 133.4375 149.339844 133.699219 150.300781 C 134.007812 151.433594 133.339844 152.390625 132.695312 153.316406 C 132.417969 153.714844 132.132812 154.121094 131.9375 154.527344 C 131.378906 155.699219 131.546875 157.171875 132.355469 158.191406 C 132.621094 158.523438 132.949219 158.800781 133.316406 159.015625 C 134.238281 158.757812 135.273438 158.902344 136.070312 159.476562 C 136.164062 159.546875 136.210938 159.667969 136.1875 159.785156 C 136.164062 159.902344 136.074219 159.996094 135.957031 160.019531 C 135.050781 160.21875 134.089844 160.078125 133.261719 159.671875 C 132.933594 159.792969 132.628906 159.976562 132.375 160.222656 C 131.546875 161.039062 131.386719 162.460938 131.980469 163.519531 C 132.457031 163.597656 132.882812 163.851562 133.214844 164.265625 C 133.769531 164.949219 134.042969 166.050781 133.910156 167.070312 C 133.847656 167.550781 133.730469 168.027344 133.617188 168.492188 C 133.402344 169.382812 133.199219 170.222656 133.351562 171.058594 C 133.644531 172.625 135.175781 173.667969 136.566406 174.003906 C 138.113281 174.378906 139.769531 174.140625 141.1875 173.859375 L 158.9375 168.972656 C 161.46875 168.273438 164.085938 167.554688 166.421875 166.285156 C 167.921875 165.472656 171.570312 163.261719 173.089844 160.269531 C 173.164062 160.121094 173.347656 160.0625 173.5 160.136719 C 173.648438 160.210938 173.707031 160.394531 173.632812 160.546875 C 172.035156 163.6875 168.261719 165.980469 166.710938 166.820312 C 164.3125 168.121094 161.664062 168.851562 159.101562 169.554688 L 141.339844 174.449219 C 141.332031 174.449219 141.324219 174.449219 141.316406 174.453125 C 140.386719 174.636719 139.359375 174.804688 138.308594 174.804688 Z M 138.308594 174.804688 "/><path style=" stroke:none;fill-rule:nonzero;fill:#855268;fill-opacity:1;" d="M 175.117188 202.175781 C 175.042969 202.175781 174.964844 202.148438 174.90625 202.085938 C 174.785156 201.96875 174.785156 201.777344 174.90625 201.65625 C 176.355469 200.207031 176.570312 197.660156 175.539062 194.089844 C 175.085938 192.515625 174.441406 190.964844 173.820312 189.46875 C 173.339844 188.3125 172.84375 187.117188 172.429688 185.90625 C 171.957031 184.511719 171.585938 183.0625 171.226562 181.664062 C 170.707031 179.640625 170.171875 177.550781 169.324219 175.625 C 168.011719 172.640625 165.054688 169.394531 161.40625 168.875 C 161.238281 168.851562 161.125 168.699219 161.148438 168.53125 C 161.171875 168.367188 161.324219 168.25 161.492188 168.273438 C 165.371094 168.824219 168.5 172.242188 169.882812 175.378906 C 170.75 177.351562 171.292969 179.46875 171.816406 181.511719 C 172.171875 182.902344 172.539062 184.339844 173.007812 185.710938 C 173.410156 186.902344 173.90625 188.089844 174.382812 189.234375 C 175.011719 190.75 175.660156 192.3125 176.125 193.921875 C 177.21875 197.722656 176.953125 200.46875 175.335938 202.085938 C 175.273438 202.148438 175.199219 202.175781 175.121094 202.175781 Z M 175.117188 202.175781 "/><path style=" stroke:none;fill-rule:nonzero;fill:#855268;fill-opacity:1;" d="M 148.054688 222.894531 C 147.929688 222.894531 147.8125 222.816406 147.769531 222.691406 C 146.316406 218.535156 149.640625 214.195312 153.34375 211.925781 C 154.566406 211.171875 155.886719 210.519531 157.160156 209.886719 C 159.636719 208.660156 162.195312 207.390625 164.082031 205.375 C 167.347656 201.890625 168.492188 196.464844 167.578125 188.785156 C 167.457031 187.75 167.308594 186.6875 167.167969 185.660156 C 166.492188 180.796875 165.796875 175.765625 167.207031 171.027344 C 168.1875 167.730469 170.136719 164.765625 172.023438 161.902344 C 174.511719 158.125 176.859375 154.558594 177.207031 150.28125 C 177.597656 145.484375 175.1875 141 173.097656 138.082031 C 171.5625 135.941406 169.757812 133.945312 168.011719 132.019531 C 166.820312 130.703125 165.589844 129.339844 164.449219 127.9375 C 156.597656 118.292969 152.664062 105.082031 153.574219 91.539062 C 147.652344 100.363281 147.1875 111.988281 152.503906 120.8125 C 153.710938 122.820312 155.195312 124.730469 156.628906 126.582031 C 159.152344 129.839844 161.761719 133.207031 162.972656 137.21875 C 164.695312 142.917969 163.332031 149.066406 161.765625 154.328125 C 161.503906 155.214844 161.222656 156.121094 160.953125 156.992188 C 159.550781 161.535156 158.097656 166.234375 158.125 171.003906 C 158.144531 174.484375 158.957031 177.957031 159.742188 181.3125 C 160.175781 183.167969 160.621094 185.085938 160.9375 186.996094 C 161.710938 191.722656 161.773438 198.277344 157.664062 202.664062 C 157.550781 202.785156 157.355469 202.792969 157.234375 202.675781 C 157.113281 202.5625 157.105469 202.371094 157.222656 202.246094 C 161.164062 198.039062 161.089844 191.683594 160.335938 187.09375 C 160.027344 185.203125 159.582031 183.296875 159.148438 181.449219 C 158.355469 178.058594 157.539062 174.554688 157.515625 171.003906 C 157.488281 166.140625 158.953125 161.398438 160.371094 156.8125 C 160.640625 155.941406 160.921875 155.039062 161.183594 154.152344 C 162.71875 148.976562 164.066406 142.9375 162.390625 137.390625 C 161.210938 133.488281 158.636719 130.167969 156.144531 126.953125 C 154.703125 125.089844 153.207031 123.164062 151.980469 121.125 C 149.253906 116.597656 147.96875 111.261719 148.261719 105.699219 C 148.5625 100.082031 150.445312 94.75 153.714844 90.273438 C 153.796875 90.164062 153.941406 90.121094 154.066406 90.167969 C 154.195312 90.21875 154.277344 90.34375 154.265625 90.480469 C 153.066406 104.253906 156.949219 117.765625 164.917969 127.554688 C 166.046875 128.945312 167.273438 130.300781 168.460938 131.609375 C 170.21875 133.550781 172.035156 135.558594 173.589844 137.726562 C 176.671875 142.03125 178.132812 146.386719 177.808594 150.328125 C 177.449219 154.761719 174.949219 158.5625 172.527344 162.234375 C 170.664062 165.0625 168.738281 167.988281 167.785156 171.199219 C 166.414062 175.8125 167.101562 180.777344 167.765625 185.574219 C 167.90625 186.605469 168.054688 187.671875 168.179688 188.714844 C 169.113281 196.578125 167.917969 202.164062 164.523438 205.789062 C 162.5625 207.886719 159.949219 209.179688 157.425781 210.429688 C 156.164062 211.054688 154.859375 211.703125 153.65625 212.441406 C 150.15625 214.589844 146.996094 218.648438 148.339844 222.488281 C 148.394531 222.648438 148.3125 222.820312 148.152344 222.878906 C 148.121094 222.890625 148.085938 222.894531 148.054688 222.894531 Z M 148.054688 222.894531 "/><path style=" stroke:none;fill-rule:nonzero;fill:#855268;fill-opacity:1;" d="M 176.476562 198.253906 C 176.410156 198.253906 176.339844 198.230469 176.285156 198.183594 C 176.152344 198.078125 176.132812 197.886719 176.238281 197.757812 C 179.195312 194.09375 180.144531 189.027344 178.714844 184.539062 C 178.1875 182.882812 177.34375 181.289062 176.527344 179.746094 C 175.339844 177.5 174.113281 175.179688 173.820312 172.601562 C 173.363281 168.554688 175.347656 164.59375 177.125 161.597656 C 177.445312 161.058594 177.777344 160.511719 178.101562 159.984375 C 179.75 157.285156 181.453125 154.492188 182.117188 151.402344 C 183.492188 144.972656 180.039062 138.8125 177.863281 135.710938 C 175.90625 132.929688 173.539062 130.386719 171.25 127.925781 C 169.75 126.308594 168.191406 124.636719 166.761719 122.90625 C 163.007812 118.371094 159.984375 113.253906 157.777344 107.703125 C 155.804688 102.726562 154.523438 97.503906 153.964844 92.15625 C 151.742188 100.363281 150.300781 107.769531 152.855469 114.617188 C 154.394531 118.75 157.257812 122.28125 160.027344 125.699219 C 162.660156 128.945312 165.382812 132.300781 167.015625 136.203125 C 170.1875 143.792969 168.789062 152.566406 167.457031 158.503906 C 167.042969 160.355469 166.570312 162.230469 166.117188 164.042969 C 164.773438 169.390625 163.382812 174.917969 163.28125 180.488281 C 163.277344 180.652344 163.144531 180.785156 162.980469 180.785156 L 162.972656 180.785156 C 162.804688 180.78125 162.671875 180.644531 162.675781 180.476562 C 162.777344 174.839844 164.175781 169.277344 165.527344 163.894531 C 165.980469 162.085938 166.453125 160.214844 166.863281 158.371094 C 168.175781 152.515625 169.5625 143.867188 166.457031 136.4375 C 164.855469 132.617188 162.164062 129.292969 159.558594 126.082031 C 156.757812 122.625 153.859375 119.054688 152.285156 114.828125 C 149.503906 107.359375 151.335938 99.335938 153.824219 90.371094 C 153.863281 90.230469 154 90.136719 154.144531 90.152344 C 154.292969 90.164062 154.40625 90.285156 154.417969 90.429688 C 155.308594 102.214844 159.859375 113.609375 167.230469 122.519531 C 168.648438 124.238281 170.199219 125.902344 171.695312 127.511719 C 174 129.984375 176.378906 132.542969 178.359375 135.359375 C 182.21875 140.851562 183.765625 146.59375 182.710938 151.527344 C 182.027344 154.714844 180.292969 157.554688 178.617188 160.300781 C 178.296875 160.824219 177.964844 161.367188 177.648438 161.902344 C 175.8125 165 173.988281 168.6875 174.425781 172.53125 C 174.703125 174.992188 175.851562 177.164062 177.066406 179.460938 C 177.894531 181.023438 178.75 182.644531 179.292969 184.355469 C 180.785156 189.035156 179.796875 194.316406 176.710938 198.136719 C 176.652344 198.210938 176.5625 198.25 176.476562 198.25 Z M 176.476562 198.253906 "/><path style=" stroke:none;fill-rule:nonzero;fill:#855268;fill-opacity:1;" d="M 215.070312 167.351562 C 211.742188 167.351562 208.492188 165.164062 205.15625 160.6875 C 201.863281 156.273438 199.09375 151.46875 196.921875 146.410156 L 196.851562 146.242188 C 195.527344 143.164062 194.03125 139.671875 190.925781 138.675781 C 189.71875 138.289062 188.453125 138.347656 187.117188 138.40625 C 186.097656 138.453125 185.046875 138.5 184.019531 138.332031 C 180.417969 137.753906 177.84375 134.832031 175.515625 131.886719 C 165.992188 119.839844 156.789062 106.492188 153.957031 90.539062 C 153.941406 90.449219 153.964844 90.359375 154.023438 90.289062 C 154.082031 90.222656 154.164062 90.179688 154.253906 90.179688 C 160.71875 90.179688 167.351562 88.339844 172.933594 84.992188 L 173.582031 84.605469 C 179.238281 81.207031 185.085938 77.699219 191.605469 78.050781 C 198.410156 78.421875 203.886719 83.003906 207.28125 86.78125 C 209.550781 89.308594 211.542969 92.125 213.472656 94.84375 C 214.996094 96.992188 216.570312 99.210938 218.265625 101.273438 C 220.015625 103.398438 221.980469 105.460938 223.878906 107.457031 C 228.601562 112.417969 233.484375 117.546875 235.570312 124.128906 C 237.863281 131.339844 236.246094 138.539062 234.488281 143.304688 C 232.171875 149.578125 228.335938 155.300781 224.921875 160.167969 C 222.460938 163.679688 219.648438 166.976562 215.746094 167.320312 C 215.519531 167.339844 215.296875 167.351562 215.074219 167.351562 Z M 188.523438 137.757812 C 189.394531 137.757812 190.265625 137.828125 191.113281 138.097656 C 194.480469 139.175781 196.035156 142.804688 197.410156 146.003906 L 197.480469 146.171875 C 199.636719 151.1875 202.378906 155.949219 205.644531 160.324219 C 209.070312 164.917969 212.355469 167.011719 215.691406 166.71875 C 219.347656 166.394531 222.050781 163.214844 224.425781 159.820312 C 227.820312 154.984375 231.628906 149.300781 233.917969 143.097656 C 235.644531 138.417969 237.230469 131.363281 234.992188 124.3125 C 232.949219 117.867188 228.113281 112.789062 223.4375 107.875 C 221.53125 105.875 219.5625 103.800781 217.796875 101.660156 C 216.085938 99.582031 214.507812 97.351562 212.980469 95.195312 C 211.058594 92.488281 209.078125 89.691406 206.832031 87.191406 C 203.511719 83.496094 198.171875 79.015625 191.574219 78.660156 C 185.238281 78.316406 179.472656 81.777344 173.894531 85.128906 L 173.25 85.515625 C 167.679688 88.855469 161.078125 90.71875 154.621094 90.789062 C 157.503906 106.453125 166.589844 119.617188 175.996094 131.511719 C 178.246094 134.363281 180.730469 137.191406 184.117188 137.734375 C 185.082031 137.890625 186.105469 137.84375 187.089844 137.800781 C 187.566406 137.78125 188.042969 137.757812 188.523438 137.757812 Z M 188.523438 137.757812 "/><path style=" stroke:none;fill-rule:nonzero;fill:#855268;fill-opacity:1;" d="M 193.941406 131.535156 C 193.097656 131.535156 192.242188 131.488281 191.378906 131.394531 C 187.675781 130.984375 183.917969 129.714844 180.507812 127.730469 C 173.867188 123.863281 168.785156 117.84375 164.285156 111.910156 C 159.925781 106.164062 155.191406 99.304688 154.269531 90.664062 C 154.253906 90.507812 154.355469 90.367188 154.503906 90.335938 C 154.65625 90.300781 154.804688 90.386719 154.855469 90.53125 C 156.945312 96.59375 159.464844 102.902344 163.730469 107.980469 C 168.347656 113.476562 174.648438 116.660156 180.578125 116.484375 C 185.175781 116.355469 189.886719 114.398438 195.394531 110.324219 C 196.878906 109.226562 198.347656 108.042969 199.769531 106.902344 C 202.570312 104.644531 205.46875 102.3125 208.652344 100.496094 C 209.785156 99.851562 211.144531 99.160156 212.621094 98.953125 C 214.21875 98.726562 215.769531 99.140625 216.765625 100.066406 C 218.960938 102.101562 218.167969 105.589844 217.382812 108.039062 C 215.839844 112.832031 214.359375 116.769531 212.152344 120.40625 C 209.558594 124.679688 206.222656 127.882812 202.503906 129.671875 C 199.941406 130.90625 197.023438 131.539062 193.941406 131.539062 Z M 155.441406 93.96875 C 157.042969 100.910156 161.042969 106.632812 164.769531 111.542969 C 169.230469 117.425781 174.261719 123.394531 180.8125 127.207031 C 187.90625 131.335938 196.113281 132.070312 202.238281 129.125 C 205.851562 127.386719 209.097656 124.261719 211.628906 120.089844 C 213.808594 116.503906 215.273438 112.601562 216.800781 107.851562 C 217.539062 105.5625 218.292969 102.308594 216.351562 100.511719 C 215.488281 99.710938 214.125 99.351562 212.703125 99.550781 C 211.328125 99.746094 210.035156 100.40625 208.953125 101.023438 C 205.808594 102.816406 202.933594 105.132812 200.148438 107.371094 C 198.722656 108.519531 197.25 109.707031 195.753906 110.8125 C 190.140625 114.960938 185.324219 116.957031 180.59375 117.089844 C 174.472656 117.269531 168 114.003906 163.265625 108.371094 C 159.695312 104.125 157.339844 99.046875 155.441406 93.96875 Z M 155.441406 93.96875 "/><path style=" stroke:none;fill-rule:nonzero;fill:#855268;fill-opacity:1;" d="M 207.921875 137.84375 C 206.347656 137.84375 204.777344 137.625 203.246094 137.410156 C 202.261719 137.273438 201.242188 137.132812 200.246094 137.050781 C 197.910156 136.863281 195.519531 137 193.207031 137.132812 C 191.234375 137.246094 189.195312 137.363281 187.1875 137.28125 C 184.089844 137.15625 178.441406 136.316406 175.367188 132.113281 C 175.265625 131.976562 175.296875 131.789062 175.429688 131.6875 C 175.566406 131.589844 175.757812 131.617188 175.855469 131.753906 C 178.78125 135.75 184.226562 136.554688 187.210938 136.675781 C 189.191406 136.753906 191.214844 136.640625 193.171875 136.527344 C 195.503906 136.394531 197.914062 136.253906 200.292969 136.449219 C 201.308594 136.53125 202.335938 136.671875 203.328125 136.808594 C 205.507812 137.113281 207.761719 137.425781 209.9375 137.09375 C 213.128906 136.597656 216.238281 134.683594 218.691406 131.691406 C 222.742188 126.757812 224.34375 119.800781 222.976562 113.078125 C 222.085938 108.703125 220 104.507812 216.953125 100.878906 C 216.945312 100.878906 216.941406 100.882812 216.9375 100.882812 C 216.777344 100.929688 216.609375 100.839844 216.558594 100.679688 C 216.515625 100.53125 216.46875 100.390625 216.410156 100.253906 C 215.40625 99.117188 214.304688 98.042969 213.113281 97.039062 C 211.578125 96.308594 209.769531 95.960938 208.117188 95.960938 L 208.082031 95.960938 C 205.097656 95.972656 202.195312 97.03125 199.382812 98.058594 C 198.925781 98.226562 198.46875 98.394531 198.007812 98.554688 C 193.039062 100.324219 186.742188 101.914062 180.183594 101.914062 C 175.398438 101.914062 170.476562 101.066406 165.824219 98.828125 C 161.679688 96.828125 158.09375 93.871094 154.628906 91.007812 C 154.621094 91 154.609375 90.992188 154.601562 90.984375 C 154.472656 90.875 154.453125 90.6875 154.5625 90.554688 C 154.667969 90.429688 154.859375 90.410156 154.988281 90.515625 C 155 90.523438 155.007812 90.53125 155.019531 90.542969 C 158.507812 93.417969 163.484375 95.019531 169.039062 95.046875 C 174.121094 95.070312 179.210938 93.875 183.992188 92.644531 L 184.664062 92.46875 C 190.027344 91.082031 195.570312 89.648438 201.074219 90.519531 C 205.121094 91.15625 209.253906 93.113281 213.023438 96.171875 C 213.171875 96.292969 213.320312 96.417969 213.464844 96.539062 C 215.007812 97.292969 216.289062 98.410156 216.933594 99.925781 C 220.308594 103.761719 222.617188 108.253906 223.574219 112.957031 C 224.976562 119.859375 223.328125 127.003906 219.164062 132.078125 C 216.613281 135.183594 213.371094 137.179688 210.03125 137.691406 C 209.328125 137.800781 208.625 137.84375 207.921875 137.84375 Z M 158.707031 93.527344 C 161.023438 95.328125 163.445312 97.007812 166.085938 98.28125 C 176.925781 103.5 189.316406 101 197.804688 97.984375 C 198.261719 97.820312 198.71875 97.65625 199.175781 97.488281 C 202.035156 96.445312 204.992188 95.363281 208.078125 95.351562 C 209.21875 95.351562 210.4375 95.507812 211.601562 95.835938 C 208.203125 93.304688 204.554688 91.679688 200.980469 91.117188 C 195.601562 90.265625 190.117188 91.683594 184.816406 93.054688 L 184.140625 93.230469 C 179.324219 94.46875 174.191406 95.683594 169.035156 95.652344 C 165.242188 95.632812 161.707031 94.894531 158.707031 93.527344 Z M 158.707031 93.527344 "/><path style=" stroke:none;fill-rule:nonzero;fill:#855268;fill-opacity:1;" d="M 209.085938 156.082031 C 208.140625 156.082031 207.222656 155.992188 206.332031 155.808594 C 202.726562 155.078125 199.644531 152.710938 198.476562 149.777344 C 198.414062 149.621094 198.492188 149.445312 198.648438 149.382812 C 198.804688 149.320312 198.980469 149.398438 199.042969 149.554688 C 200.132812 152.300781 203.042969 154.523438 206.453125 155.214844 C 209.3125 155.796875 212.511719 155.398438 215.949219 154.027344 C 222.089844 151.578125 227.214844 146.742188 230.003906 140.746094 C 232.792969 134.753906 233.199219 127.71875 231.113281 121.445312 C 229.355469 116.148438 225.925781 111.539062 222.367188 107.390625 C 226.605469 114.089844 228.503906 120.210938 228.148438 126 C 227.699219 133.371094 223.21875 140.414062 216.730469 143.945312 C 213.515625 145.695312 209.910156 146.632812 206.300781 146.652344 C 202.644531 146.675781 199.046875 145.75 195.902344 143.980469 C 195.757812 143.898438 195.707031 143.714844 195.789062 143.566406 C 195.871094 143.421875 196.054688 143.371094 196.203125 143.453125 C 202.40625 146.949219 209.96875 146.933594 216.441406 143.414062 C 222.75 139.980469 227.105469 133.128906 227.542969 125.960938 C 227.960938 119.140625 225.164062 111.820312 218.992188 103.582031 C 218.894531 103.449219 218.917969 103.265625 219.042969 103.164062 C 219.167969 103.058594 219.351562 103.074219 219.460938 103.195312 C 224.089844 108.335938 229.339844 114.167969 231.691406 121.253906 C 233.820312 127.671875 233.40625 134.871094 230.554688 141.003906 C 227.699219 147.136719 222.457031 152.085938 216.175781 154.589844 C 213.683594 155.582031 211.308594 156.078125 209.085938 156.078125 Z M 209.085938 156.082031 "/><path style=" stroke:none;fill-rule:nonzero;fill:#855268;fill-opacity:1;" d="M 189.925781 123.421875 C 186.929688 123.421875 183.699219 122.800781 180.386719 121.558594 C 176.230469 120.003906 172.371094 117.710938 168.921875 114.742188 C 165.496094 111.796875 162.636719 108.335938 160.421875 104.449219 C 160.339844 104.304688 160.390625 104.117188 160.535156 104.035156 C 160.683594 103.953125 160.867188 104.003906 160.949219 104.148438 C 165.378906 111.921875 172.355469 117.902344 180.597656 120.988281 C 186.792969 123.308594 192.691406 123.417969 197.199219 121.296875 C 201.417969 119.3125 204.460938 115.476562 207.125 111.625 C 209.519531 108.15625 212.800781 103.40625 216.660156 100.351562 C 216.792969 100.25 216.984375 100.269531 217.089844 100.402344 C 217.191406 100.535156 217.171875 100.726562 217.039062 100.828125 C 213.246094 103.828125 209.996094 108.53125 207.625 111.96875 C 204.914062 115.890625 201.808594 119.804688 197.460938 121.847656 C 195.230469 122.898438 192.675781 123.421875 189.925781 123.421875 Z M 189.925781 123.421875 "/><path style=" stroke:none;fill-rule:nonzero;fill:#855268;fill-opacity:1;" d="M 181.097656 156.054688 C 180.960938 156.054688 180.839844 155.964844 180.804688 155.828125 C 180.761719 155.664062 180.859375 155.496094 181.019531 155.457031 C 185.742188 154.214844 189.832031 150.640625 191.691406 146.128906 C 192.34375 144.550781 192.945312 142.238281 192.113281 140.183594 C 191.894531 139.640625 191.609375 139.226562 191.269531 138.957031 C 190.710938 138.511719 189.898438 138.34375 188.78125 138.449219 C 188.359375 138.488281 187.824219 138.511719 187.269531 138.519531 C 188.296875 139.011719 189.359375 139.917969 190.042969 142.273438 C 190.355469 143.355469 190.320312 144.492188 189.949219 145.472656 C 189.535156 146.5625 188.828125 147.472656 188.253906 148.140625 C 187.066406 149.527344 185.703125 150.753906 184.195312 151.78125 C 184.125 151.828125 184.035156 151.84375 183.953125 151.824219 C 183.867188 151.804688 183.796875 151.75 183.757812 151.671875 C 183.132812 150.511719 183.582031 149.113281 184.046875 148.027344 L 184.085938 147.9375 C 184.523438 146.90625 184.976562 145.839844 184.6875 144.851562 C 184.496094 144.210938 184 143.671875 183.515625 143.152344 L 183.421875 143.050781 C 182.878906 142.460938 182.289062 141.761719 182.171875 140.878906 C 182.105469 140.34375 182.277344 139.757812 182.632812 139.351562 C 182.914062 139.023438 183.289062 138.839844 183.683594 138.832031 C 183.847656 138.835938 183.988281 138.964844 183.988281 139.132812 C 183.992188 139.300781 183.859375 139.4375 183.691406 139.441406 C 183.410156 139.445312 183.210938 139.609375 183.089844 139.746094 C 182.851562 140.023438 182.726562 140.4375 182.773438 140.800781 C 182.867188 141.503906 183.386719 142.121094 183.867188 142.636719 L 183.960938 142.738281 C 184.492188 143.3125 185.039062 143.902344 185.269531 144.679688 C 185.621094 145.878906 185.101562 147.097656 184.644531 148.171875 L 184.605469 148.265625 C 184.242188 149.121094 183.878906 150.183594 184.160156 151.066406 C 185.5 150.113281 186.722656 149 187.792969 147.746094 C 188.335938 147.113281 189.003906 146.261719 189.382812 145.257812 C 189.707031 144.398438 189.738281 143.398438 189.460938 142.441406 C 188.636719 139.597656 187.273438 139.117188 186.070312 138.695312 C 185.820312 138.605469 185.585938 138.523438 185.355469 138.421875 C 185.21875 138.359375 185.148438 138.210938 185.1875 138.066406 C 185.226562 137.921875 185.363281 137.824219 185.515625 137.84375 C 186.464844 137.949219 187.851562 137.925781 188.726562 137.84375 C 190.003906 137.726562 190.960938 137.933594 191.648438 138.480469 C 192.070312 138.816406 192.417969 139.3125 192.675781 139.957031 C 193.585938 142.203125 192.949219 144.679688 192.253906 146.363281 C 190.324219 151.046875 186.078125 154.757812 181.175781 156.042969 C 181.152344 156.050781 181.125 156.054688 181.097656 156.054688 Z M 181.097656 156.054688 "/><path style=" stroke:none;fill-rule:nonzero;fill:#855268;fill-opacity:1;" d="M 142.265625 137.949219 C 142.074219 137.949219 141.886719 137.9375 141.699219 137.910156 C 140.628906 137.75 139.449219 136.945312 139.273438 135.714844 C 139.214844 135.277344 139.363281 134.921875 139.667969 134.777344 C 139.882812 134.679688 140.097656 134.722656 140.257812 134.75 C 140.652344 134.824219 141.0625 134.863281 141.484375 134.863281 C 141.488281 134.753906 141.496094 134.652344 141.5 134.558594 C 141.613281 132.554688 141.425781 130.511719 140.957031 128.65625 C 140.953125 128.644531 140.949219 128.632812 140.949219 128.621094 C 140.769531 127.320312 141.8125 126.195312 142.882812 125.796875 C 144.011719 125.375 145.242188 125.523438 146.296875 125.726562 C 146.492188 125.761719 146.683594 125.804688 146.878906 125.84375 C 147.226562 125.914062 147.582031 125.988281 147.933594 126.042969 C 145.722656 125.011719 143.003906 124.976562 140.808594 126.023438 C 140.742188 126.058594 140.675781 126.089844 140.605469 126.125 C 140.3125 126.269531 140.007812 126.417969 139.667969 126.5 C 139.136719 126.621094 138.636719 126.53125 138.289062 126.25 C 137.71875 125.785156 137.703125 124.953125 137.941406 124.328125 C 138.539062 122.757812 140.324219 122.101562 141.671875 122.011719 C 143.191406 121.914062 144.769531 122.308594 146.238281 123.140625 C 147.503906 123.863281 148.679688 124.910156 149.730469 126.257812 C 149.800781 126.34375 149.816406 126.464844 149.769531 126.566406 C 149.722656 126.667969 149.625 126.738281 149.511719 126.746094 C 149.480469 126.75 149.449219 126.75 149.417969 126.75 C 149.34375 126.785156 149.257812 126.789062 149.179688 126.757812 C 148.351562 126.761719 147.542969 126.597656 146.757812 126.4375 C 146.566406 126.398438 146.375 126.359375 146.183594 126.320312 C 145.207031 126.136719 144.082031 125.996094 143.097656 126.363281 C 142.25 126.679688 141.425781 127.542969 141.546875 128.523438 C 142.03125 130.433594 142.222656 132.535156 142.105469 134.59375 C 142.101562 134.675781 142.097656 134.757812 142.09375 134.839844 C 142.792969 134.785156 143.523438 134.636719 144.285156 134.398438 C 145.609375 133.980469 146.875 133.339844 148.101562 132.71875 C 148.21875 132.660156 148.363281 132.683594 148.457031 132.777344 C 148.546875 132.871094 148.570312 133.011719 148.511719 133.128906 C 147.75 134.621094 146.199219 135.820312 144.023438 136.59375 C 143.457031 136.796875 142.636719 137.007812 142.035156 136.519531 C 141.695312 136.246094 141.558594 135.859375 141.507812 135.46875 C 141.039062 135.46875 140.589844 135.429688 140.152344 135.347656 C 140.070312 135.332031 139.960938 135.3125 139.925781 135.328125 C 139.890625 135.34375 139.855469 135.46875 139.878906 135.628906 C 140.011719 136.5625 140.941406 137.179688 141.792969 137.304688 C 142.605469 137.425781 143.503906 137.234375 144.625 136.703125 C 146.390625 135.863281 147.996094 134.582031 149.261719 133 C 149.363281 132.875 149.542969 132.851562 149.671875 132.941406 L 149.710938 132.96875 C 149.847656 133.0625 149.882812 133.253906 149.785156 133.390625 C 149.746094 133.445312 149.695312 133.484375 149.636719 133.503906 C 148.328125 135.101562 146.6875 136.394531 144.886719 137.25 C 143.894531 137.722656 143.046875 137.949219 142.269531 137.949219 Z M 142.117188 135.445312 C 142.15625 135.699219 142.242188 135.910156 142.414062 136.046875 C 142.6875 136.269531 143.148438 136.261719 143.816406 136.023438 C 144.953125 135.621094 146.382812 134.921875 147.351562 133.773438 C 146.421875 134.230469 145.464844 134.664062 144.464844 134.976562 C 143.652344 135.234375 142.867188 135.390625 142.117188 135.445312 Z M 142.128906 122.605469 C 141.988281 122.605469 141.847656 122.609375 141.707031 122.621094 C 140.539062 122.695312 139 123.246094 138.503906 124.546875 C 138.351562 124.949219 138.335938 125.511719 138.667969 125.78125 C 138.867188 125.941406 139.1875 125.988281 139.527344 125.910156 C 139.800781 125.84375 140.0625 125.714844 140.335938 125.578125 C 140.40625 125.542969 140.476562 125.511719 140.546875 125.476562 C 142.984375 124.316406 145.90625 124.367188 148.3125 125.550781 C 147.566406 124.777344 146.769531 124.144531 145.933594 123.671875 C 144.707031 122.972656 143.398438 122.605469 142.128906 122.605469 Z M 142.128906 122.605469 "/><path style=" stroke:none;fill-rule:nonzero;fill:#855268;fill-opacity:1;" d="M 205.957031 175.757812 C 205.195312 175.757812 204.390625 175.617188 203.585938 175.34375 C 200.402344 174.246094 197.777344 171.335938 196.386719 167.363281 C 195.316406 164.308594 195.039062 161.027344 194.773438 157.851562 C 194.738281 157.4375 194.703125 157.019531 194.667969 156.605469 C 194.257812 151.964844 193.347656 148.300781 191.960938 145.714844 C 191.882812 145.566406 191.9375 145.382812 192.085938 145.304688 C 192.234375 145.222656 192.417969 145.28125 192.496094 145.425781 C 193.921875 148.089844 194.855469 151.832031 195.273438 156.550781 C 195.308594 156.96875 195.34375 157.386719 195.378906 157.800781 C 195.640625 160.9375 195.914062 164.179688 196.957031 167.164062 C 198.289062 170.960938 200.777344 173.730469 203.785156 174.769531 C 205.40625 175.324219 207.011719 175.269531 208.195312 174.613281 C 210.089844 173.5625 210.722656 171.121094 210.367188 169.253906 C 210.023438 167.425781 208.890625 165.65625 207.007812 163.992188 C 206.007812 163.109375 204.890625 162.328125 203.808594 161.570312 C 203.132812 161.097656 202.433594 160.605469 201.761719 160.09375 C 200.226562 158.914062 199.097656 157.773438 198.300781 156.589844 C 198.449219 159.714844 200.535156 161.738281 202.351562 162.917969 C 203.15625 163.441406 204.058594 163.839844 204.9375 164.222656 C 205.355469 164.410156 205.789062 164.597656 206.214844 164.804688 C 207.28125 165.320312 208.796875 166.171875 209.671875 167.605469 C 210.433594 168.855469 210.621094 170.769531 209.519531 172.011719 C 208.578125 173.070312 206.84375 173.386719 205.300781 172.78125 C 203.859375 172.214844 202.769531 171.019531 201.980469 170.042969 C 197.960938 165.050781 195.613281 158.328125 194.800781 149.5 L 194.765625 149.113281 C 194.527344 146.472656 194.28125 143.742188 192.597656 141.84375 C 192.503906 141.738281 192.492188 141.585938 192.574219 141.472656 C 192.652344 141.355469 192.796875 141.308594 192.929688 141.359375 C 195.882812 142.453125 196.6875 146.066406 196.898438 147.570312 C 197.003906 148.332031 197.0625 149.113281 197.121094 149.871094 C 197.25 151.539062 197.382812 153.265625 198.023438 154.800781 C 198.71875 156.46875 200.023438 157.996094 202.132812 159.613281 C 202.792969 160.117188 203.484375 160.601562 204.15625 161.074219 C 205.253906 161.839844 206.386719 162.632812 207.410156 163.539062 C 209.398438 165.292969 210.59375 167.179688 210.964844 169.140625 C 211.425781 171.570312 210.382812 174.09375 208.492188 175.144531 C 207.757812 175.550781 206.886719 175.757812 205.957031 175.757812 Z M 193.867188 142.578125 C 194.957031 144.472656 195.167969 146.796875 195.371094 149.058594 L 195.40625 149.445312 C 196.207031 158.152344 198.511719 164.765625 202.457031 169.660156 C 203.195312 170.582031 204.214844 171.703125 205.523438 172.214844 C 206.59375 172.636719 208.160156 172.628906 209.0625 171.609375 C 209.972656 170.585938 209.796875 168.980469 209.152344 167.921875 C 208.550781 166.933594 207.535156 166.117188 205.949219 165.351562 C 205.535156 165.148438 205.105469 164.960938 204.691406 164.777344 C 203.792969 164.382812 202.867188 163.976562 202.019531 163.425781 C 198.957031 161.4375 197.46875 158.726562 197.710938 155.578125 C 197.621094 155.398438 197.539062 155.214844 197.460938 155.03125 C 196.78125 153.40625 196.644531 151.632812 196.515625 149.917969 C 196.457031 149.167969 196.398438 148.398438 196.292969 147.652344 C 196.132812 146.484375 195.585938 143.949219 193.863281 142.574219 Z M 193.867188 142.578125 "/><path style=" stroke:none;fill-rule:nonzero;fill:#855268;fill-opacity:1;" d="M 218.722656 190.363281 C 218.695312 190.363281 218.671875 190.359375 218.644531 190.351562 C 216.300781 189.730469 215.078125 187.363281 214.746094 185.523438 C 214.410156 183.667969 214.671875 181.777344 214.929688 179.949219 C 214.960938 179.714844 214.996094 179.484375 215.027344 179.253906 C 215.28125 177.371094 215.488281 175.199219 214.734375 173.269531 C 213.921875 171.1875 212.074219 169.636719 210.25 168.222656 C 210.117188 168.121094 210.09375 167.929688 210.195312 167.796875 C 210.296875 167.664062 210.488281 167.640625 210.621094 167.742188 C 212.511719 169.207031 214.429688 170.824219 215.300781 173.050781 C 216.105469 175.113281 215.890625 177.375 215.628906 179.335938 C 215.597656 179.566406 215.5625 179.800781 215.53125 180.035156 C 215.28125 181.816406 215.023438 183.65625 215.34375 185.417969 C 215.644531 187.082031 216.730469 189.21875 218.800781 189.769531 C 218.960938 189.8125 219.058594 189.976562 219.015625 190.140625 C 218.980469 190.277344 218.855469 190.367188 218.722656 190.367188 Z M 218.722656 190.363281 "/><path style=" stroke:none;fill-rule:nonzero;fill:#855268;fill-opacity:1;" d="M 219.152344 203.894531 C 219.058594 203.894531 218.960938 203.847656 218.902344 203.765625 C 217.496094 201.71875 216.964844 198.867188 217.402344 195.738281 C 217.707031 193.554688 218.414062 191.4375 219.09375 189.386719 C 219.265625 188.878906 219.433594 188.375 219.59375 187.867188 C 220.394531 185.382812 221.101562 182.710938 220.867188 180.015625 C 220.664062 177.660156 219.703125 175.191406 218.089844 172.871094 C 216.476562 170.558594 214.382812 168.613281 212.738281 167.171875 C 212.613281 167.0625 212.597656 166.871094 212.710938 166.746094 C 212.820312 166.617188 213.011719 166.605469 213.136719 166.714844 C 214.808594 168.175781 216.9375 170.15625 218.585938 172.523438 C 220.261719 174.929688 221.261719 177.5 221.472656 179.960938 C 221.714844 182.765625 220.992188 185.507812 220.171875 188.050781 C 220.007812 188.5625 219.839844 189.070312 219.671875 189.578125 C 218.996094 191.601562 218.300781 193.695312 218 195.820312 C 217.585938 198.800781 218.082031 201.5 219.402344 203.417969 C 219.496094 203.558594 219.460938 203.746094 219.324219 203.839844 C 219.273438 203.878906 219.210938 203.894531 219.152344 203.894531 Z M 219.152344 203.894531 "/><path style=" stroke:none;fill-rule:nonzero;fill:#855268;fill-opacity:1;" d="M 221 203.355469 C 220.855469 203.355469 220.726562 203.25 220.703125 203.101562 C 220.519531 201.960938 220.785156 200.710938 221.488281 199.382812 C 221.882812 198.636719 222.367188 197.945312 222.835938 197.273438 C 223.0625 196.953125 223.296875 196.617188 223.515625 196.285156 C 225.636719 193.058594 226.738281 189.261719 226.621094 185.59375 C 226.496094 181.773438 225.015625 178.027344 222.554688 175.320312 C 221.804688 174.496094 220.941406 173.726562 220.101562 172.980469 C 218.289062 171.371094 216.414062 169.703125 215.578125 167.382812 C 215.519531 167.222656 215.601562 167.050781 215.757812 166.992188 C 215.917969 166.933594 216.089844 167.015625 216.148438 167.175781 C 216.933594 169.351562 218.667969 170.894531 220.503906 172.527344 C 221.355469 173.285156 222.234375 174.066406 223.003906 174.910156 C 225.5625 177.726562 227.101562 181.609375 227.226562 185.574219 C 227.347656 189.367188 226.210938 193.289062 224.023438 196.621094 C 223.800781 196.960938 223.5625 197.296875 223.335938 197.625 C 222.875 198.277344 222.402344 198.957031 222.023438 199.667969 C 221.382812 200.875 221.140625 202 221.300781 203.007812 C 221.328125 203.171875 221.214844 203.328125 221.050781 203.351562 C 221.035156 203.355469 221.019531 203.355469 221 203.355469 Z M 221 203.355469 "/><path style=" stroke:none;fill-rule:nonzero;fill:#855268;fill-opacity:1;" d="M 228.285156 203.695312 C 228.132812 203.695312 228 203.578125 227.984375 203.421875 C 227.492188 198.863281 226.9375 193.691406 224.535156 189.425781 C 223.382812 187.375 221.808594 185.542969 220.285156 183.773438 C 219.136719 182.4375 217.949219 181.054688 216.933594 179.574219 C 214.402344 175.875 212.925781 171.554688 212.675781 167.078125 C 212.664062 166.914062 212.792969 166.769531 212.960938 166.757812 C 213.125 166.753906 213.269531 166.878906 213.28125 167.046875 C 213.527344 171.410156 214.964844 175.625 217.433594 179.230469 C 218.429688 180.683594 219.609375 182.054688 220.746094 183.378906 C 222.289062 185.171875 223.882812 187.023438 225.066406 189.128906 C 227.527344 193.503906 228.09375 198.742188 228.589844 203.359375 C 228.609375 203.527344 228.488281 203.675781 228.320312 203.695312 C 228.308594 203.695312 228.296875 203.695312 228.289062 203.695312 Z M 228.285156 203.695312 "/><path style=" stroke:none;fill-rule:nonzero;fill:#855268;fill-opacity:1;" d="M 233.445312 172.242188 C 233.347656 172.242188 233.253906 172.195312 233.191406 172.109375 C 231.496094 169.625 228.195312 168.132812 224.574219 168.222656 C 224.015625 168.234375 223.441406 168.28125 222.886719 168.328125 C 222.113281 168.390625 221.308594 168.457031 220.511719 168.433594 C 218.847656 168.386719 217.484375 167.90625 216.570312 167.050781 C 216.449219 166.9375 216.441406 166.746094 216.554688 166.621094 C 216.667969 166.5 216.863281 166.492188 216.984375 166.609375 C 218 167.558594 219.472656 167.796875 220.53125 167.828125 C 221.296875 167.851562 222.078125 167.785156 222.835938 167.722656 C 223.398438 167.675781 223.980469 167.628906 224.558594 167.613281 C 228.378906 167.519531 231.878906 169.113281 233.695312 171.765625 C 233.789062 171.902344 233.753906 172.09375 233.613281 172.1875 C 233.5625 172.222656 233.503906 172.238281 233.441406 172.238281 Z M 233.445312 172.242188 "/><path style=" stroke:none;fill-rule:nonzero;fill:#855268;fill-opacity:1;" d="M 135.015625 137.40625 C 134.917969 137.40625 134.820312 137.359375 134.761719 137.273438 C 132.632812 134.113281 132.191406 129.953125 133.601562 126.414062 C 134.085938 125.207031 134.769531 124.085938 135.429688 123 C 136.214844 121.714844 137.027344 120.382812 137.472656 118.945312 C 138.035156 117.113281 138.007812 115.125 137.980469 113.199219 C 137.972656 112.667969 137.964844 112.121094 137.96875 111.582031 C 138.019531 106.195312 139.390625 101.40625 141.945312 97.742188 C 144.910156 93.480469 149.605469 90.785156 154.496094 90.542969 C 154.648438 90.53125 154.78125 90.640625 154.8125 90.789062 C 154.839844 90.9375 154.753906 91.085938 154.609375 91.132812 C 151.4375 92.183594 148.644531 94.441406 146.949219 97.320312 C 146.164062 98.644531 145.578125 100.144531 145.007812 101.597656 C 144 104.164062 142.957031 106.816406 140.804688 108.613281 C 140.675781 108.722656 140.484375 108.703125 140.378906 108.578125 C 140.269531 108.449219 140.289062 108.257812 140.414062 108.148438 C 142.449219 106.449219 143.417969 103.984375 144.441406 101.375 C 145.019531 99.902344 145.617188 98.378906 146.425781 97.011719 C 147.816406 94.648438 149.917969 92.6875 152.363281 91.425781 C 148.460938 92.222656 144.859375 94.613281 142.441406 98.089844 C 139.957031 101.65625 138.621094 106.324219 138.574219 111.589844 C 138.570312 112.121094 138.578125 112.664062 138.585938 113.191406 C 138.613281 115.164062 138.644531 117.199219 138.050781 119.125 C 137.582031 120.636719 136.75 122 135.949219 123.316406 C 135.300781 124.382812 134.628906 125.480469 134.164062 126.640625 C 132.824219 129.996094 133.246094 133.9375 135.265625 136.9375 C 135.359375 137.074219 135.320312 137.265625 135.183594 137.355469 C 135.128906 137.390625 135.070312 137.410156 135.011719 137.410156 Z M 135.015625 137.40625 "/><path style=" stroke:none;fill-rule:nonzero;fill:#855268;fill-opacity:1;" d="M 153.367188 90.828125 C 153.238281 90.828125 153.121094 90.742188 153.078125 90.617188 C 153.03125 90.46875 153.101562 90.3125 153.238281 90.246094 C 155.246094 89.320312 157.109375 88.027344 158.914062 86.78125 C 159.691406 86.242188 160.492188 85.6875 161.300781 85.164062 C 165.726562 82.300781 170.628906 80.230469 175.867188 79.011719 C 181.105469 77.796875 186.414062 77.492188 191.652344 78.109375 C 191.816406 78.128906 191.933594 78.273438 191.917969 78.4375 C 191.90625 78.597656 191.773438 78.722656 191.605469 78.714844 C 185.011719 78.457031 178.617188 80.90625 172.6875 83.59375 C 171.796875 83.996094 170.890625 84.417969 170.011719 84.824219 C 164.886719 87.195312 159.59375 89.648438 153.421875 90.820312 C 153.402344 90.824219 153.382812 90.824219 153.367188 90.824219 Z M 186.445312 78.414062 C 177.726562 78.414062 168.914062 80.960938 161.628906 85.675781 C 160.832031 86.191406 160.03125 86.742188 159.261719 87.277344 C 158.039062 88.121094 156.792969 88.988281 155.484375 89.75 C 160.675781 88.476562 165.285156 86.34375 169.757812 84.273438 C 170.636719 83.867188 171.542969 83.445312 172.4375 83.039062 C 176.875 81.027344 181.578125 79.148438 186.445312 78.414062 Z M 186.445312 78.414062 "/><path style=" stroke:none;fill-rule:nonzero;fill:#855268;fill-opacity:1;" d="M 193.425781 193.042969 C 193.378906 193.042969 193.332031 193.03125 193.289062 193.007812 C 191.949219 192.324219 190.835938 191.636719 189.890625 190.910156 C 188.546875 189.875 187.683594 188.828125 187.25 187.699219 C 186.6875 186.226562 186.949219 184.578125 187.90625 183.601562 C 188.679688 182.8125 189.898438 182.46875 191.007812 182.734375 C 191.921875 182.949219 192.75 183.570312 193.257812 184.398438 C 193.847656 183.75 194.550781 183.097656 195.441406 182.78125 C 196.550781 182.390625 197.789062 182.644531 198.519531 183.414062 C 199.164062 184.097656 199.421875 185.167969 199.226562 186.355469 C 199.003906 187.71875 198.261719 189.082031 197.089844 190.289062 C 196.0625 191.351562 194.851562 192.175781 193.59375 192.996094 C 193.542969 193.027344 193.488281 193.042969 193.429688 193.042969 Z M 190.246094 183.25 C 189.53125 183.25 188.828125 183.527344 188.339844 184.023438 C 187.425781 184.960938 187.417969 186.4375 187.820312 187.484375 C 188.207031 188.503906 189.007812 189.464844 190.257812 190.425781 C 191.140625 191.101562 192.171875 191.746094 193.410156 192.386719 C 194.582031 191.617188 195.710938 190.839844 196.652344 189.867188 C 197.410156 189.085938 198.367188 187.824219 198.625 186.257812 C 198.792969 185.257812 198.589844 184.371094 198.078125 183.832031 C 197.519531 183.242188 196.515625 183.046875 195.640625 183.355469 C 194.738281 183.671875 194.023438 184.433594 193.421875 185.125 C 193.355469 185.203125 193.25 185.238281 193.148438 185.226562 C 193.042969 185.210938 192.957031 185.144531 192.914062 185.050781 C 192.527344 184.191406 191.742188 183.527344 190.867188 183.320312 C 190.660156 183.273438 190.453125 183.25 190.246094 183.25 Z M 190.246094 183.25 "/><path style=" stroke:none;fill-rule:nonzero;fill:#855268;fill-opacity:1;" d="M 192.675781 179.292969 C 192.628906 179.292969 192.582031 179.285156 192.539062 179.261719 C 191.570312 178.765625 190.765625 178.269531 190.082031 177.742188 C 189.101562 176.992188 188.472656 176.222656 188.15625 175.398438 C 187.738281 174.304688 187.933594 173.085938 188.644531 172.359375 C 189.222656 171.769531 190.128906 171.515625 190.953125 171.710938 C 191.597656 171.863281 192.1875 172.285156 192.566406 172.851562 C 193.003906 172.386719 193.496094 171.960938 194.09375 171.75 C 194.925781 171.457031 195.851562 171.644531 196.402344 172.226562 C 196.882812 172.734375 197.078125 173.53125 196.933594 174.414062 C 196.765625 175.410156 196.226562 176.40625 195.371094 177.289062 C 194.628906 178.054688 193.75 178.652344 192.84375 179.246094 C 192.792969 179.277344 192.734375 179.292969 192.675781 179.292969 Z M 190.386719 172.25 C 189.898438 172.25 189.414062 172.441406 189.078125 172.78125 C 188.445312 173.429688 188.441406 174.453125 188.722656 175.179688 C 188.996094 175.898438 189.5625 176.578125 190.449219 177.261719 C 191.070312 177.734375 191.792969 178.1875 192.660156 178.640625 C 193.484375 178.097656 194.273438 177.546875 194.9375 176.867188 C 195.472656 176.3125 196.152344 175.421875 196.332031 174.316406 C 196.386719 173.988281 196.460938 173.167969 195.960938 172.644531 C 195.582031 172.242188 194.898438 172.109375 194.296875 172.320312 C 193.667969 172.542969 193.164062 173.082031 192.738281 173.570312 C 192.667969 173.648438 192.566406 173.6875 192.464844 173.671875 C 192.363281 173.65625 192.273438 173.589844 192.230469 173.496094 C 191.964844 172.902344 191.421875 172.445312 190.816406 172.300781 C 190.675781 172.265625 190.53125 172.25 190.390625 172.25 Z M 190.386719 172.25 "/><path style=" stroke:none;fill-rule:nonzero;fill:#855268;fill-opacity:1;" d="M 192.675781 179.292969 C 192.628906 179.292969 192.582031 179.285156 192.539062 179.261719 C 191.570312 178.765625 190.765625 178.269531 190.082031 177.742188 C 189.101562 176.992188 188.472656 176.222656 188.15625 175.398438 C 187.738281 174.304688 187.933594 173.085938 188.644531 172.359375 C 189.222656 171.769531 190.128906 171.515625 190.953125 171.710938 C 191.597656 171.863281 192.1875 172.285156 192.566406 172.851562 C 193.003906 172.386719 193.496094 171.960938 194.09375 171.75 C 194.925781 171.457031 195.851562 171.644531 196.402344 172.226562 C 196.882812 172.734375 197.078125 173.53125 196.933594 174.414062 C 196.765625 175.410156 196.226562 176.40625 195.371094 177.289062 C 194.628906 178.054688 193.75 178.652344 192.84375 179.246094 C 192.792969 179.277344 192.734375 179.292969 192.675781 179.292969 Z M 190.386719 172.25 C 189.898438 172.25 189.414062 172.441406 189.078125 172.78125 C 188.445312 173.429688 188.441406 174.453125 188.722656 175.179688 C 188.996094 175.898438 189.5625 176.578125 190.449219 177.261719 C 191.070312 177.734375 191.792969 178.1875 192.660156 178.640625 C 193.484375 178.097656 194.273438 177.546875 194.9375 176.867188 C 195.472656 176.3125 196.152344 175.421875 196.332031 174.316406 C 196.386719 173.988281 196.460938 173.167969 195.960938 172.644531 C 195.582031 172.242188 194.898438 172.109375 194.296875 172.320312 C 193.667969 172.542969 193.164062 173.082031 192.738281 173.570312 C 192.667969 173.648438 192.566406 173.6875 192.464844 173.671875 C 192.363281 173.65625 192.273438 173.589844 192.230469 173.496094 C 191.964844 172.902344 191.421875 172.445312 190.816406 172.300781 C 190.675781 172.265625 190.53125 172.25 190.390625 172.25 Z M 190.386719 172.25 "/><path style=" stroke:none;fill-rule:nonzero;fill:#855268;fill-opacity:1;" d="M 192.574219 168.003906 C 192.527344 168.003906 192.480469 167.992188 192.433594 167.96875 C 191.917969 167.707031 191.492188 167.441406 191.125 167.160156 C 190.589844 166.75 190.246094 166.328125 190.070312 165.871094 C 189.832031 165.246094 189.945312 164.542969 190.359375 164.125 C 190.695312 163.78125 191.222656 163.632812 191.703125 163.746094 C 192.027344 163.824219 192.316406 164.007812 192.527344 164.261719 C 192.742188 164.054688 192.980469 163.871094 193.265625 163.769531 C 193.753906 163.597656 194.300781 163.714844 194.625 164.058594 C 194.910156 164.355469 195.027344 164.820312 194.941406 165.324219 C 194.851562 165.878906 194.554688 166.425781 194.085938 166.90625 C 193.6875 167.320312 193.21875 167.636719 192.738281 167.953125 C 192.6875 167.984375 192.628906 168.003906 192.574219 168.003906 Z M 191.378906 164.316406 C 191.160156 164.316406 190.9375 164.398438 190.792969 164.550781 C 190.546875 164.800781 190.484375 165.253906 190.636719 165.652344 C 190.769531 166.003906 191.050781 166.339844 191.496094 166.679688 C 191.792969 166.90625 192.144531 167.128906 192.554688 167.347656 C 192.953125 167.085938 193.335938 166.8125 193.652344 166.484375 C 193.917969 166.210938 194.257812 165.769531 194.34375 165.226562 C 194.398438 164.914062 194.339844 164.632812 194.1875 164.472656 C 194.027344 164.304688 193.730469 164.25 193.46875 164.34375 C 193.203125 164.4375 192.976562 164.65625 192.714844 164.957031 C 192.648438 165.035156 192.542969 165.070312 192.441406 165.058594 C 192.339844 165.042969 192.25 164.976562 192.207031 164.882812 C 192.085938 164.609375 191.839844 164.402344 191.566406 164.335938 C 191.503906 164.324219 191.441406 164.316406 191.378906 164.316406 Z M 191.378906 164.316406 "/><path style=" stroke:none;fill-rule:nonzero;fill:#855268;fill-opacity:1;" d="M 193.097656 155.328125 C 193.078125 155.328125 193.0625 155.328125 193.046875 155.324219 C 192.882812 155.296875 192.769531 155.140625 192.796875 154.976562 C 193.273438 152.027344 192.6875 149.03125 192.117188 146.136719 C 192.085938 145.972656 192.195312 145.816406 192.359375 145.78125 C 192.523438 145.75 192.683594 145.855469 192.714844 146.023438 C 193.265625 148.832031 193.890625 152.015625 193.394531 155.074219 C 193.371094 155.222656 193.242188 155.328125 193.097656 155.328125 Z M 193.097656 155.328125 "/><path style=" stroke:none;fill-rule:nonzero;fill:#855268;fill-opacity:1;" d="M 241.328125 122.980469 C 240.144531 122.980469 238.949219 122.765625 237.789062 122.265625 C 235.054688 121.085938 233.226562 118.625 231.457031 116.246094 C 231.273438 116 231.09375 115.757812 230.910156 115.511719 C 227.777344 111.351562 224.152344 107.5625 220.128906 104.253906 L 220.050781 104.1875 C 219.039062 103.355469 217.917969 102.433594 217.304688 101.230469 C 216.554688 100.894531 216.039062 100.136719 215.785156 99.011719 C 213.332031 95.3125 212.039062 90.5625 212.171875 85.449219 C 212.261719 81.878906 213.082031 76.726562 216.460938 72.476562 C 219.558594 68.585938 224.242188 66.449219 228.683594 66.910156 C 230.464844 67.09375 232.175781 67.675781 233.832031 68.242188 C 235.1875 68.707031 236.59375 69.1875 238.011719 69.433594 C 239.523438 69.695312 241.132812 69.714844 242.6875 69.730469 C 245.535156 69.765625 248.480469 69.796875 250.933594 71.328125 C 253.070312 72.664062 254.378906 74.863281 255.640625 76.988281 C 256.1875 77.902344 256.75 78.847656 257.367188 79.707031 C 257.996094 80.582031 258.726562 81.417969 259.433594 82.226562 C 260.574219 83.53125 261.75 84.878906 262.570312 86.453125 C 264.46875 90.085938 264.117188 94.15625 263.488281 96.929688 C 262.195312 102.632812 258.742188 107.785156 255.972656 111.921875 C 254.011719 114.847656 251.792969 118.160156 248.640625 120.449219 C 246.738281 121.828125 244.074219 122.984375 241.328125 122.984375 Z M 218.714844 102.167969 C 219.226562 102.722656 219.835938 103.226562 220.4375 103.71875 L 220.515625 103.785156 C 224.574219 107.125 228.234375 110.949219 231.394531 115.148438 C 231.578125 115.390625 231.761719 115.636719 231.945312 115.886719 C 233.667969 118.199219 235.449219 120.59375 238.03125 121.710938 C 241.652344 123.273438 245.703125 121.828125 248.285156 119.953125 C 251.347656 117.730469 253.539062 114.464844 255.46875 111.585938 C 257.019531 109.265625 258.789062 106.628906 260.257812 103.765625 C 257.820312 106.617188 254.027344 108.257812 250.269531 108.257812 C 249.125 108.257812 247.988281 108.105469 246.890625 107.789062 C 244.527344 107.113281 242.425781 105.777344 240.394531 104.484375 C 239.253906 103.757812 238.074219 103.007812 236.863281 102.390625 C 231.710938 99.742188 225.59375 99.246094 220.082031 101.023438 L 219.980469 101.058594 C 219.558594 101.195312 219.101562 101.34375 218.640625 101.402344 C 218.652344 101.421875 218.664062 101.4375 218.675781 101.457031 C 218.734375 101.542969 218.792969 101.632812 218.851562 101.726562 C 218.933594 101.855469 218.90625 102.027344 218.789062 102.125 C 218.765625 102.140625 218.742188 102.15625 218.714844 102.167969 Z M 226.804688 99.367188 C 230.375 99.367188 233.9375 100.203125 237.140625 101.851562 C 238.375 102.484375 239.566406 103.238281 240.71875 103.972656 C 242.714844 105.242188 244.777344 106.554688 247.058594 107.207031 C 251.574219 108.5 256.839844 106.890625 259.863281 103.292969 C 260.757812 102.226562 261.445312 101 261.917969 99.6875 C 261.742188 99.835938 261.550781 99.972656 261.339844 100.09375 C 260.128906 100.773438 258.671875 100.667969 257.683594 100.527344 C 255.4375 100.210938 253.28125 99.417969 251.195312 98.648438 C 250.363281 98.34375 249.503906 98.027344 248.65625 97.746094 C 238.902344 94.527344 228.054688 95.355469 218.902344 100.011719 C 218.625 100.152344 218.324219 100.324219 218.25 100.566406 C 218.230469 100.628906 218.253906 100.714844 218.296875 100.820312 C 218.78125 100.808594 219.292969 100.644531 219.792969 100.480469 L 219.894531 100.449219 C 222.132812 99.722656 224.472656 99.367188 226.804688 99.367188 Z M 217.625 100.433594 C 217.632812 100.445312 217.640625 100.453125 217.648438 100.460938 C 217.65625 100.4375 217.660156 100.414062 217.667969 100.390625 C 217.824219 99.878906 218.34375 99.613281 218.625 99.472656 C 223.160156 97.164062 228.308594 95.734375 233.507812 95.339844 C 238.710938 94.941406 244.011719 95.578125 248.847656 97.171875 C 249.703125 97.453125 250.570312 97.773438 251.402344 98.078125 C 253.460938 98.835938 255.585938 99.621094 257.769531 99.925781 C 259.203125 100.128906 260.242188 100.011719 261.042969 99.5625 C 261.652344 99.222656 262.078125 98.710938 262.371094 98.128906 C 262.976562 95.414062 262.714844 92.496094 261.5 90.003906 C 259.527344 85.953125 255.085938 82.910156 249.910156 82.0625 C 245.664062 81.367188 240.933594 81.96875 235.445312 83.90625 C 228.152344 86.480469 222.472656 90.433594 219.027344 95.335938 C 217.6875 97.238281 217.207031 98.828125 217.558594 100.195312 C 217.578125 100.277344 217.601562 100.355469 217.628906 100.4375 Z M 216.355469 98.769531 C 216.511719 99 216.675781 99.230469 216.839844 99.453125 C 216.796875 98.128906 217.351562 96.660156 218.527344 94.988281 C 222.050781 89.980469 227.828125 85.949219 235.242188 83.332031 C 240.828125 81.359375 245.65625 80.75 250.007812 81.460938 C 255.375 82.339844 259.988281 85.511719 262.046875 89.738281 C 262.074219 89.796875 262.101562 89.855469 262.128906 89.914062 C 260.234375 83.480469 255.53125 77.890625 249.417969 75.074219 C 242.085938 71.703125 233.046875 72.46875 226.386719 77.027344 C 219.726562 81.585938 215.742188 89.734375 216.234375 97.789062 C 216.253906 98.101562 216.289062 98.441406 216.359375 98.769531 Z M 227.480469 67.453125 C 223.59375 67.453125 219.640625 69.453125 216.933594 72.855469 C 213.660156 76.972656 212.867188 81.984375 212.777344 85.464844 C 212.664062 89.953125 213.667969 94.15625 215.613281 97.570312 C 215.207031 89.386719 219.28125 81.152344 226.042969 76.523438 C 232.875 71.847656 242.148438 71.0625 249.667969 74.523438 C 252.054688 75.621094 254.234375 77.132812 256.125 78.949219 C 255.777344 78.402344 255.445312 77.84375 255.121094 77.296875 C 253.835938 75.136719 252.621094 73.097656 250.609375 71.84375 C 248.300781 70.402344 245.570312 70.371094 242.679688 70.335938 C 241.097656 70.316406 239.464844 70.300781 237.90625 70.027344 C 236.441406 69.773438 235.011719 69.285156 233.632812 68.8125 C 232.007812 68.261719 230.332031 67.6875 228.621094 67.511719 C 228.242188 67.472656 227.859375 67.453125 227.480469 67.453125 Z M 260.203125 84.0625 C 261.800781 86.714844 262.90625 89.664062 263.382812 92.730469 C 263.390625 90.789062 263.054688 88.691406 262.03125 86.730469 C 261.535156 85.777344 260.890625 84.902344 260.203125 84.0625 Z M 260.203125 84.0625 "/><path style=" stroke:none;fill-rule:nonzero;fill:#855268;fill-opacity:1;" d="M 243.199219 118.449219 C 240.957031 118.449219 239.308594 116.808594 236.816406 114.328125 C 233.421875 110.949219 228.300781 105.851562 217.921875 101.75 C 217.839844 101.71875 217.777344 101.65625 217.75 101.574219 C 217.71875 101.496094 217.722656 101.40625 217.761719 101.332031 C 220.046875 96.742188 224.023438 93.316406 229.90625 90.855469 C 235.085938 88.691406 240.890625 87.644531 245.886719 86.90625 C 248.648438 86.5 251.886719 86.179688 254.972656 86.894531 C 258.269531 87.660156 260.988281 89.636719 262.242188 92.183594 C 263.515625 94.765625 263.40625 98.191406 261.953125 101.355469 C 260.617188 104.253906 258.367188 106.695312 256.363281 108.753906 C 249.414062 115.890625 245.976562 118.429688 243.234375 118.449219 C 243.222656 118.449219 243.210938 118.449219 243.199219 118.449219 Z M 218.453125 101.308594 C 228.742188 105.433594 233.851562 110.519531 237.242188 113.894531 C 239.628906 116.269531 241.207031 117.84375 243.199219 117.84375 C 243.210938 117.84375 243.222656 117.84375 243.230469 117.84375 C 245.753906 117.824219 249.195312 115.246094 255.925781 108.328125 C 257.894531 106.304688 260.105469 103.914062 261.398438 101.097656 C 262.777344 98.101562 262.890625 94.871094 261.699219 92.449219 C 260.523438 90.066406 257.957031 88.210938 254.832031 87.484375 C 251.847656 86.792969 248.679688 87.105469 245.976562 87.503906 C 235.070312 89.117188 223.300781 92.019531 218.453125 101.308594 Z M 218.453125 101.308594 "/><path style=" stroke:none;fill-rule:nonzero;fill:#855268;fill-opacity:1;" d="M 216.308594 99.117188 C 216.242188 99.117188 216.171875 99.09375 216.117188 99.046875 C 214.996094 98.121094 214.070312 97.03125 213.292969 95.855469 C 208.367188 90.195312 203.421875 83.84375 201.167969 76.355469 C 201.089844 76.09375 201.011719 75.828125 200.933594 75.5625 C 200.863281 75.324219 200.792969 75.085938 200.722656 74.851562 C 199.742188 74.4375 198.730469 74.203125 197.722656 74.179688 C 196.261719 74.140625 194.867188 74.5 193.386719 74.882812 C 192.175781 75.195312 190.925781 75.519531 189.652344 75.597656 C 186.710938 75.777344 183.546875 74.671875 180.246094 72.3125 C 178.890625 71.339844 177.605469 70.246094 176.363281 69.1875 C 175.121094 68.128906 173.835938 67.03125 172.488281 66.070312 C 169.304688 63.796875 166.269531 62.738281 163.46875 62.921875 C 160.472656 63.117188 157.109375 65.265625 156.664062 68.523438 C 156.640625 68.6875 156.488281 68.804688 156.320312 68.78125 C 156.15625 68.757812 156.039062 68.605469 156.0625 68.441406 C 156.550781 64.878906 160.191406 62.53125 163.425781 62.316406 C 166.371094 62.125 169.539062 63.222656 172.84375 65.578125 C 174.210938 66.554688 175.503906 67.65625 176.757812 68.722656 C 177.988281 69.777344 179.265625 70.863281 180.597656 71.816406 C 183.78125 74.09375 186.816406 75.160156 189.613281 74.992188 C 190.828125 74.917969 192.050781 74.601562 193.234375 74.296875 C 194.6875 73.917969 196.195312 73.53125 197.738281 73.570312 C 198.664062 73.59375 199.589844 73.78125 200.496094 74.109375 C 199.820312 71.992188 198.953125 70.027344 197.097656 69.121094 C 195.703125 68.4375 193.894531 68.484375 191.714844 69.257812 C 191.09375 69.476562 190.46875 69.738281 189.863281 69.992188 C 188.707031 70.476562 187.515625 70.976562 186.253906 71.226562 C 184.449219 71.589844 182.035156 71.371094 180.65625 69.6875 C 180.550781 69.558594 180.570312 69.367188 180.699219 69.261719 C 180.828125 69.15625 181.019531 69.171875 181.128906 69.304688 C 182.332031 70.777344 184.503906 70.957031 186.132812 70.632812 C 187.335938 70.394531 188.5 69.902344 189.628906 69.433594 C 190.242188 69.175781 190.875 68.910156 191.511719 68.683594 C 193.851562 67.855469 195.820312 67.820312 197.363281 68.574219 C 199.570312 69.652344 200.507812 72.066406 201.222656 74.410156 C 203.320312 75.367188 205.265625 77.109375 206.75 79.4375 C 208.320312 81.898438 209.285156 84.699219 210.214844 87.410156 C 210.457031 88.109375 210.703125 88.832031 210.957031 89.535156 C 211.667969 91.496094 212.535156 93.605469 213.777344 95.488281 C 214.703125 96.550781 215.628906 97.589844 216.535156 98.609375 C 216.640625 98.726562 216.636719 98.90625 216.527344 99.023438 C 216.46875 99.082031 216.390625 99.113281 216.308594 99.113281 Z M 201.457031 75.199219 C 201.476562 75.261719 201.496094 75.328125 201.515625 75.390625 C 201.59375 75.65625 201.671875 75.921875 201.746094 76.179688 C 203.667969 82.558594 207.59375 88.128906 211.78125 93.148438 C 211.242188 92.007812 210.789062 90.851562 210.386719 89.742188 C 210.132812 89.035156 209.882812 88.308594 209.640625 87.605469 C 208.722656 84.929688 207.769531 82.164062 206.238281 79.761719 C 204.933594 77.714844 203.265625 76.144531 201.457031 75.199219 Z M 201.457031 75.199219 "/><path style=" stroke:none;fill-rule:nonzero;fill:#855268;fill-opacity:1;" d="M 217.382812 101.238281 C 217.292969 101.238281 217.203125 101.195312 217.140625 101.117188 C 216.324219 100.042969 216.667969 98.230469 216.945312 96.777344 C 217.007812 96.457031 217.0625 96.15625 217.105469 95.886719 C 217.78125 91.371094 220.210938 87.078125 223.9375 83.796875 C 227.273438 80.859375 231.625 78.761719 236.515625 77.730469 C 242.972656 76.367188 249.226562 77.136719 254.128906 79.894531 C 256.796875 81.394531 259.0625 83.554688 260.6875 86.136719 C 262.382812 88.832031 263.242188 91.804688 263.171875 94.726562 C 263.167969 94.890625 263.03125 95.023438 262.867188 95.023438 C 262.863281 95.023438 262.863281 95.023438 262.859375 95.023438 C 262.691406 95.019531 262.5625 94.878906 262.566406 94.710938 C 262.695312 89.179688 259.1875 83.4375 253.832031 80.425781 C 249.058594 77.738281 242.953125 76.992188 236.640625 78.324219 C 231.851562 79.335938 227.597656 81.382812 224.339844 84.25 C 220.71875 87.4375 218.359375 91.601562 217.703125 95.976562 C 217.660156 96.257812 217.601562 96.5625 217.542969 96.890625 C 217.289062 98.226562 216.972656 99.890625 217.625 100.75 C 217.726562 100.882812 217.699219 101.074219 217.566406 101.175781 C 217.511719 101.214844 217.449219 101.238281 217.382812 101.238281 Z M 217.382812 101.238281 "/></g></svg>